<svg xmlns="http://www.w3.org/2000/svg" xmlns:xlink="http://www.w3.org/1999/xlink" width="1920" zoomAndPan="magnify" viewBox="0 0 1440 809.999993" height="1080" preserveAspectRatio="xMidYMid meet" version="1.0"><defs><g/><clipPath id="64b4f0027d"><path d="M 691 379.007812 L 740 379.007812 L 740 444.257812 L 691 444.257812 Z M 691 379.007812 " clip-rule="nonzero"/></clipPath><clipPath id="2be425a559"><path d="M 622 367 L 652 367 L 652 418 L 622 418 Z M 622 367 " clip-rule="nonzero"/></clipPath><clipPath id="422972eab8"><path d="M 646.066406 365.558594 L 661.988281 375.457031 L 635.460938 418.136719 L 619.535156 408.238281 Z M 646.066406 365.558594 " clip-rule="nonzero"/></clipPath><clipPath id="5c1390dd12"><path d="M 646.066406 365.558594 L 661.988281 375.457031 L 635.460938 418.136719 L 619.535156 408.238281 Z M 646.066406 365.558594 " clip-rule="nonzero"/></clipPath></defs><g fill="#ffffff" fill-opacity="1"><g transform="translate(640.691528, 428.541942)"><g><path d="M 12.316406 -32.042969 L 12.316406 -32.09375 L 12.476562 -32.042969 Z M 12.527344 -18.019531 L 7.410156 -18.019531 L 7.410156 -17.488281 L 9.542969 -17.488281 L 9.542969 -15.140625 C 9.542969 -14.074219 9.542969 -12.902344 9.542969 -11.675781 C 9.542969 -10.449219 9.597656 -9.222656 9.597656 -7.996094 L 9.597656 -4.90625 C 9.597656 -3.410156 9.382812 -2.1875 8.957031 -1.332031 C 8.53125 -0.425781 7.996094 0 7.355469 0 C 6.664062 0 6.132812 -0.425781 5.757812 -1.28125 C 5.332031 -2.132812 5.171875 -3.253906 5.171875 -4.691406 C 5.117188 -6.929688 5.117188 -9.4375 5.117188 -12.316406 L 5.117188 -32.628906 C 5.117188 -34.015625 5.277344 -35.1875 5.703125 -36.039062 C 6.132812 -36.894531 6.664062 -37.320312 7.355469 -37.320312 C 7.996094 -37.320312 8.53125 -36.839844 8.957031 -35.984375 C 9.328125 -35.132812 9.542969 -33.960938 9.542969 -32.519531 L 9.542969 -30.335938 L 12.582031 -30.335938 L 12.582031 -32.042969 C 12.582031 -33.746094 12.101562 -35.1875 11.140625 -36.253906 C 10.183594 -37.320312 8.957031 -37.851562 7.355469 -37.851562 C 5.757812 -37.851562 4.476562 -37.320312 3.519531 -36.253906 C 2.558594 -35.1875 2.132812 -33.855469 2.132812 -32.148438 L 2.132812 -5.171875 C 2.132812 -3.464844 2.558594 -2.078125 3.519531 -1.011719 C 4.476562 0.0546875 5.757812 0.53125 7.355469 0.53125 C 9.117188 0.53125 10.503906 -0.105469 11.460938 -1.492188 C 11.890625 -0.746094 12.527344 -0.160156 13.328125 0.265625 L 13.382812 0.214844 C 13.0625 0.0546875 12.847656 -0.53125 12.742188 -1.546875 C 12.582031 -2.503906 12.527344 -3.785156 12.527344 -5.277344 Z M 12.527344 -18.019531 "/></g></g></g><g fill="#ffffff" fill-opacity="1"><g transform="translate(655.404143, 428.541942)"><g><path d="M 9.382812 -27.136719 L 9.382812 -4.851562 C 9.382812 -3.359375 9.167969 -2.132812 8.742188 -1.28125 C 8.316406 -0.375 7.730469 0.0546875 7.039062 0.0546875 C 6.289062 0.0546875 5.757812 -0.375 5.332031 -1.28125 C 4.90625 -2.132812 4.691406 -3.359375 4.691406 -4.851562 L 4.691406 -27.136719 C 4.691406 -28.628906 4.90625 -29.800781 5.332031 -30.707031 C 5.757812 -31.5625 6.289062 -32.042969 7.039062 -32.042969 C 7.730469 -32.042969 8.316406 -31.5625 8.742188 -30.707031 C 9.167969 -29.800781 9.382812 -28.628906 9.382812 -27.136719 Z M 12.207031 -5.332031 L 12.207031 -26.65625 C 12.207031 -28.414062 11.730469 -29.855469 10.769531 -30.921875 C 9.808594 -31.988281 8.582031 -32.519531 7.039062 -32.519531 C 5.4375 -32.519531 4.210938 -31.988281 3.253906 -30.921875 C 2.292969 -29.855469 1.867188 -28.414062 1.867188 -26.65625 L 1.867188 -5.332031 C 1.867188 -3.519531 2.292969 -2.132812 3.253906 -1.066406 C 4.210938 0 5.4375 0.53125 7.039062 0.53125 C 8.582031 0.53125 9.808594 0 10.769531 -1.066406 C 11.730469 -2.132812 12.207031 -3.519531 12.207031 -5.332031 Z M 12.207031 -5.332031 "/></g></g></g><g fill="#ffffff" fill-opacity="1"><g transform="translate(669.477079, 428.541942)"><g><path d="M 1.867188 0 L 4.746094 0 L 4.746094 -37.320312 L 1.867188 -37.320312 Z M 1.867188 0 "/></g></g></g><g fill="#ffffff" fill-opacity="1"><g transform="translate(676.087095, 428.541942)"><g><path d="M 9.382812 0.0546875 L 12.261719 0 L 12.261719 -37.320312 L 9.382812 -37.320312 L 9.382812 -28.363281 C 9.167969 -29.640625 8.796875 -30.65625 8.15625 -31.402344 C 7.515625 -32.148438 6.71875 -32.519531 5.8125 -32.519531 C 4.636719 -32.519531 3.679688 -31.988281 2.984375 -30.921875 C 2.238281 -29.855469 1.917969 -28.46875 1.917969 -26.761719 L 1.917969 -5.066406 C 1.917969 -3.359375 2.238281 -1.972656 2.984375 -0.960938 C 3.679688 0.0546875 4.636719 0.53125 5.8125 0.53125 C 6.71875 0.53125 7.515625 0.160156 8.15625 -0.691406 C 8.796875 -1.492188 9.167969 -2.613281 9.382812 -4.050781 Z M 9.382812 -26.761719 L 9.382812 -5.652344 C 9.382812 -3.890625 9.0625 -2.503906 8.421875 -1.4375 C 7.785156 -0.375 6.984375 0.105469 5.972656 0.105469 C 5.542969 0.105469 5.226562 -0.375 5.011719 -1.4375 C 4.796875 -2.503906 4.691406 -3.890625 4.691406 -5.652344 L 4.691406 -26.761719 C 4.691406 -28.363281 4.796875 -29.589844 5.011719 -30.546875 C 5.226562 -31.507812 5.542969 -31.988281 5.972656 -31.988281 C 6.984375 -31.988281 7.785156 -31.507812 8.421875 -30.546875 C 9.0625 -29.589844 9.382812 -28.363281 9.382812 -26.761719 Z M 9.382812 -26.761719 "/></g></g></g><g fill="#000000" fill-opacity="1"><g transform="translate(690.214963, 428.541942)"><g/></g></g><g fill="#000000" fill-opacity="1"><g transform="translate(696.505139, 428.541942)"><g/></g></g><g fill="#000000" fill-opacity="1"><g transform="translate(702.795315, 428.541942)"><g/></g></g><g fill="#000000" fill-opacity="1"><g transform="translate(709.085491, 428.541942)"><g/></g></g><g fill="#000000" fill-opacity="1"><g transform="translate(715.375667, 428.541942)"><g/></g></g><g fill="#000000" fill-opacity="1"><g transform="translate(721.665843, 428.541942)"><g/></g></g><g fill="#000000" fill-opacity="1"><g transform="translate(727.956019, 428.541942)"><g/></g></g><g fill="#000000" fill-opacity="1"><g transform="translate(734.246196, 428.541942)"><g/></g></g><g fill="#ffffff" fill-opacity="1"><g transform="translate(740.546991, 428.541942)"><g><path d="M 1.867188 0 L 4.746094 0 L 4.746094 -3.839844 C 4.957031 -2.453125 5.332031 -1.386719 5.972656 -0.640625 C 6.609375 0.160156 7.355469 0.53125 8.316406 0.53125 C 9.488281 0.53125 10.394531 0.0546875 11.140625 -1.011719 C 11.835938 -2.027344 12.207031 -3.410156 12.207031 -5.117188 L 12.207031 -26.921875 C 12.207031 -28.628906 11.835938 -29.960938 11.140625 -30.976562 C 10.394531 -31.988281 9.488281 -32.519531 8.316406 -32.519531 C 7.355469 -32.519531 6.609375 -32.09375 5.972656 -31.347656 C 5.332031 -30.601562 4.957031 -29.535156 4.746094 -28.203125 L 4.746094 -37.320312 L 1.867188 -37.320312 Z M 4.746094 -5.917969 L 4.746094 -26.125 C 4.746094 -27.9375 5.011719 -29.375 5.652344 -30.441406 C 6.238281 -31.507812 7.039062 -32.042969 8.105469 -32.042969 C 8.476562 -32.042969 8.796875 -31.507812 9.011719 -30.441406 C 9.222656 -29.375 9.382812 -27.988281 9.382812 -26.285156 L 9.382812 -5.8125 C 9.382812 -4 9.222656 -2.613281 9.011719 -1.546875 C 8.796875 -0.480469 8.476562 0.0546875 8.105469 0.0546875 C 7.039062 0.0546875 6.238281 -0.480469 5.652344 -1.546875 C 5.011719 -2.613281 4.746094 -4.105469 4.746094 -5.917969 Z M 4.746094 -5.917969 "/></g></g></g><g fill="#ffffff" fill-opacity="1"><g transform="translate(754.619928, 428.541942)"><g><path d="M 1.8125 -26.976562 L 1.867188 -21.21875 L 4.746094 -21.21875 L 4.746094 -23.617188 C 4.746094 -24.257812 4.746094 -24.949219 4.746094 -25.644531 C 4.746094 -26.285156 4.796875 -26.871094 4.796875 -27.402344 C 4.796875 -28.789062 4.957031 -29.910156 5.277344 -30.761719 C 5.597656 -31.613281 6.078125 -32.042969 6.664062 -32.042969 C 7.464844 -32.042969 7.996094 -31.613281 8.261719 -30.761719 C 8.476562 -29.910156 8.636719 -28.789062 8.636719 -27.402344 L 8.636719 -20.683594 C 8.636719 -19.40625 8.316406 -18.445312 7.675781 -17.859375 C 7.039062 -17.273438 6.183594 -16.742188 5.117188 -16.3125 C 4.050781 -15.832031 3.199219 -15.140625 2.558594 -14.289062 C 1.917969 -13.433594 1.597656 -12.527344 1.597656 -11.570312 L 1.597656 -5.066406 C 1.597656 -3.359375 1.917969 -1.972656 2.558594 -0.960938 C 3.199219 0.0546875 4.105469 0.53125 5.171875 0.53125 C 6.078125 0.53125 6.824219 0.105469 7.464844 -0.800781 C 8.105469 -1.707031 8.476562 -2.933594 8.636719 -4.476562 L 8.636719 0 L 11.515625 0 L 11.515625 -26.976562 C 11.515625 -28.628906 11.089844 -29.960938 10.34375 -30.976562 C 9.597656 -31.988281 8.316406 -32.519531 6.609375 -32.519531 C 5.117188 -32.519531 3.945312 -31.988281 3.09375 -30.976562 C 2.238281 -29.960938 1.8125 -28.628906 1.8125 -26.976562 Z M 8.582031 -19.351562 L 8.636719 -19.300781 L 8.636719 -5.703125 L 8.582031 -5.703125 C 8.582031 -3.945312 8.261719 -2.558594 7.675781 -1.492188 C 7.089844 -0.425781 6.289062 0.0546875 5.332031 0.0546875 C 5.011719 0.0546875 4.796875 -0.425781 4.585938 -1.492188 C 4.371094 -2.558594 4.316406 -3.945312 4.371094 -5.703125 L 4.371094 -7.25 C 4.371094 -7.730469 4.371094 -8.316406 4.371094 -9.0625 C 4.371094 -9.808594 4.425781 -10.609375 4.425781 -11.570312 C 4.425781 -12.742188 4.476562 -13.753906 4.636719 -14.554688 C 4.746094 -15.355469 4.957031 -15.832031 5.226562 -15.941406 C 6.078125 -16.3125 6.824219 -16.742188 7.410156 -17.21875 C 7.996094 -17.699219 8.371094 -18.394531 8.582031 -19.351562 Z M 8.582031 -19.351562 "/></g></g></g><g fill="#ffffff" fill-opacity="1"><g transform="translate(768.053185, 428.541942)"><g><path d="M 8.902344 -26.285156 L 8.902344 -21.804688 L 11.78125 -21.804688 C 11.730469 -22.445312 11.730469 -23.136719 11.730469 -23.777344 L 11.730469 -26.921875 C 11.730469 -28.628906 11.355469 -29.960938 10.714844 -30.976562 C 10.074219 -31.988281 9.167969 -32.519531 8.105469 -32.519531 C 7.25 -32.519531 6.503906 -32.09375 5.917969 -31.347656 C 5.332031 -30.601562 4.957031 -29.535156 4.746094 -28.257812 L 4.746094 -31.988281 L 1.867188 -31.988281 L 1.867188 0 L 4.746094 0 L 4.746094 -26.125 C 4.746094 -27.9375 5.011719 -29.375 5.597656 -30.441406 C 6.183594 -31.507812 6.929688 -32.042969 7.890625 -32.042969 C 8.15625 -32.042969 8.371094 -31.507812 8.582031 -30.441406 C 8.796875 -29.375 8.902344 -27.988281 8.902344 -26.285156 Z M 8.902344 -26.285156 "/></g></g></g><g fill="#ffffff" fill-opacity="1"><g transform="translate(780.367005, 428.541942)"><g><path d="M 1.867188 0 L 4.746094 0 L 4.746094 -3.839844 C 4.957031 -2.453125 5.332031 -1.386719 5.972656 -0.640625 C 6.609375 0.160156 7.355469 0.53125 8.316406 0.53125 C 9.488281 0.53125 10.394531 0.0546875 11.140625 -1.011719 C 11.835938 -2.027344 12.207031 -3.410156 12.207031 -5.117188 L 12.207031 -26.921875 C 12.207031 -28.628906 11.835938 -29.960938 11.140625 -30.976562 C 10.394531 -31.988281 9.488281 -32.519531 8.316406 -32.519531 C 7.355469 -32.519531 6.609375 -32.09375 5.972656 -31.347656 C 5.332031 -30.601562 4.957031 -29.535156 4.746094 -28.203125 L 4.746094 -37.320312 L 1.867188 -37.320312 Z M 4.746094 -5.917969 L 4.746094 -26.125 C 4.746094 -27.9375 5.011719 -29.375 5.652344 -30.441406 C 6.238281 -31.507812 7.039062 -32.042969 8.105469 -32.042969 C 8.476562 -32.042969 8.796875 -31.507812 9.011719 -30.441406 C 9.222656 -29.375 9.382812 -27.988281 9.382812 -26.285156 L 9.382812 -5.8125 C 9.382812 -4 9.222656 -2.613281 9.011719 -1.546875 C 8.796875 -0.480469 8.476562 0.0546875 8.105469 0.0546875 C 7.039062 0.0546875 6.238281 -0.480469 5.652344 -1.546875 C 5.011719 -2.613281 4.746094 -4.105469 4.746094 -5.917969 Z M 4.746094 -5.917969 "/></g></g></g><g fill="#ffffff" fill-opacity="1"><g transform="translate(794.439941, 428.541942)"><g><path d="M 11.675781 -5.277344 L 11.675781 -11.941406 L 11.089844 -11.941406 L 11.089844 -5.226562 C 11.089844 -3.625 10.664062 -2.347656 9.917969 -1.386719 C 9.117188 -0.425781 8.050781 0.0546875 6.769531 0.0546875 C 6.132812 0.0546875 5.652344 -0.375 5.277344 -1.332031 C 4.851562 -2.292969 4.691406 -3.519531 4.691406 -5.117188 L 4.691406 -16.6875 L 12.261719 -16.6875 L 12.261719 -26.761719 C 12.261719 -28.46875 11.730469 -29.855469 10.769531 -30.921875 C 9.757812 -31.988281 8.421875 -32.519531 6.769531 -32.519531 C 5.277344 -32.519531 4.050781 -31.988281 3.199219 -30.921875 C 2.292969 -29.855469 1.867188 -28.46875 1.867188 -26.761719 L 1.867188 -5.277344 C 1.867188 -3.519531 2.292969 -2.132812 3.199219 -1.066406 C 4.050781 0 5.277344 0.53125 6.769531 0.53125 C 8.261719 0.53125 9.4375 0 10.34375 -1.066406 C 11.195312 -2.132812 11.675781 -3.519531 11.675781 -5.277344 Z M 9.382812 -26.761719 L 9.382812 -17.167969 L 4.691406 -17.167969 L 4.691406 -26.816406 C 4.691406 -28.414062 4.851562 -29.640625 5.277344 -30.601562 C 5.652344 -31.5625 6.132812 -32.042969 6.769531 -32.042969 C 7.515625 -32.042969 8.15625 -31.5625 8.636719 -30.601562 C 9.117188 -29.640625 9.382812 -28.363281 9.382812 -26.761719 Z M 9.382812 -26.761719 "/></g></g></g><g fill="#ffffff" fill-opacity="1"><g transform="translate(807.979812, 428.541942)"><g><path d="M 8.902344 -26.285156 L 8.902344 -21.804688 L 11.78125 -21.804688 C 11.730469 -22.445312 11.730469 -23.136719 11.730469 -23.777344 L 11.730469 -26.921875 C 11.730469 -28.628906 11.355469 -29.960938 10.714844 -30.976562 C 10.074219 -31.988281 9.167969 -32.519531 8.105469 -32.519531 C 7.25 -32.519531 6.503906 -32.09375 5.917969 -31.347656 C 5.332031 -30.601562 4.957031 -29.535156 4.746094 -28.257812 L 4.746094 -31.988281 L 1.867188 -31.988281 L 1.867188 0 L 4.746094 0 L 4.746094 -26.125 C 4.746094 -27.9375 5.011719 -29.375 5.597656 -30.441406 C 6.183594 -31.507812 6.929688 -32.042969 7.890625 -32.042969 C 8.15625 -32.042969 8.371094 -31.507812 8.582031 -30.441406 C 8.796875 -29.375 8.902344 -27.988281 8.902344 -26.285156 Z M 8.902344 -26.285156 "/></g></g></g><g clip-path="url(#64b4f0027d)"><path fill="#eeba2b" d="M 731.375 385.339844 C 732.703125 397.488281 727.808594 403.308594 720.800781 403.433594 C 729.085938 399.277344 731.796875 391.511719 727.195312 379.019531 C 732.457031 382.324219 735.355469 386.757812 735.769531 392.390625 C 736.8125 391.554688 737.933594 389.777344 738.203125 388.070312 C 740.820312 391.535156 740.152344 397.644531 736.058594 404.019531 C 737.125 403.191406 738.515625 402.261719 739.582031 401.4375 C 737.734375 413.472656 727.476562 417.128906 721.234375 417.824219 C 727.023438 415.972656 731.667969 411.609375 735.710938 406.566406 L 730.09375 406.785156 C 732.765625 405.195312 737.1875 399.828125 737.617188 394.539062 C 737.085938 394.585938 734.988281 396.777344 734.457031 396.828125 C 735.171875 392.519531 733.019531 388.226562 731.375 385.339844 Z M 699.386719 385.339844 C 698.058594 397.488281 703.601562 404.980469 710.609375 405.105469 C 702.324219 400.945312 698.964844 391.511719 703.5625 379.019531 C 698.304688 382.324219 695.402344 386.757812 694.988281 392.390625 C 693.945312 391.554688 692.824219 389.777344 692.554688 388.070312 C 689.9375 391.535156 690.605469 397.644531 694.699219 404.019531 C 693.632812 403.191406 692.242188 402.261719 691.175781 401.4375 C 693.023438 413.472656 703.28125 417.128906 709.523438 417.824219 C 703.734375 415.972656 699.09375 411.609375 695.046875 406.566406 L 700.664062 406.785156 C 697.992188 405.1875 693.5625 399.820312 693.136719 394.53125 C 693.667969 394.578125 695.765625 396.769531 696.296875 396.820312 C 695.589844 392.519531 697.742188 388.226562 699.386719 385.339844 Z M 722.453125 398.273438 C 723.6875 394.035156 720.46875 392.074219 712.207031 392.679688 C 711.527344 392.121094 710.851562 391.566406 710.171875 391.007812 C 710.753906 392.507812 711.335938 394.011719 711.914062 395.511719 C 709.773438 399.214844 709.609375 401.441406 711.1875 405.175781 C 710.910156 397.476562 716.503906 395.960938 713.367188 394.710938 C 714.050781 394.734375 722.371094 394.4375 720.617188 396.746094 C 719.753906 397.878906 715.089844 397.894531 717.476562 404.753906 C 723.707031 422.660156 696.457031 423.097656 714.679688 444.554688 C 720.148438 436.535156 726.515625 430.019531 716.980469 421.636719 C 720.371094 429.214844 720.691406 433.683594 714.828125 440.339844 C 701.984375 425.859375 722.324219 423.46875 720.394531 408.945312 C 719.722656 403.886719 716.207031 397.339844 722.453125 398.273438 Z M 722.453125 398.273438 " fill-opacity="1" fill-rule="evenodd"/></g><g clip-path="url(#2be425a559)"><g clip-path="url(#422972eab8)"><g clip-path="url(#5c1390dd12)"><path fill="#eeba2b" d="M 635.109375 406.535156 C 635.214844 406.871094 635.460938 407.066406 635.425781 407.382812 C 634.875 407.457031 634.226562 407.15625 633.265625 407.859375 C 631.179688 409.382812 631.988281 413.621094 634.699219 413.816406 C 636.636719 413.957031 639.019531 411.410156 636.9375 408.425781 C 636.570312 407.898438 635.726562 406.90625 635.109375 406.535156 M 638.230469 390.964844 C 638.199219 391.90625 639.457031 391.957031 639.578125 391.066406 C 639.683594 390.242188 638.253906 390.027344 638.230469 390.964844 Z M 629.039062 401.742188 C 628.992188 402.054688 629.105469 402.316406 629.015625 402.644531 C 628.332031 401.8125 627.449219 401.644531 626.59375 401.722656 C 625.886719 401.78125 625.0625 402.269531 624.398438 403.066406 C 623.066406 404.65625 623.140625 406.8125 624.53125 407.914062 C 625.992188 409.082031 628.332031 408.257812 629.207031 406.714844 C 629.710938 405.832031 629.796875 404.898438 629.71875 404.113281 C 629.671875 403.570312 629.371094 402.199219 629.039062 401.742188 Z M 651.550781 369.464844 C 650.929688 368.84375 650.753906 369.527344 649.972656 370.742188 L 643.058594 381.484375 L 646.820312 369.347656 C 647.25 367.972656 647.65625 367.394531 646.785156 367.316406 C 646.371094 367.816406 642.488281 376.550781 642.164062 377.289062 C 641.789062 378.140625 639.410156 383.730469 637.683594 388.09375 C 639 387.113281 639.964844 386.226562 639.976562 386.214844 C 639.878906 386.355469 639.78125 386.484375 639.679688 386.617188 C 639.679688 386.617188 637.972656 389.089844 635.863281 391.746094 C 635.777344 391.90625 635.691406 392.066406 635.609375 392.226562 C 634.1875 394.863281 634.371094 394.695312 632.582031 397.261719 C 631.242188 399.1875 630.792969 400.128906 628.910156 400.496094 C 627.679688 400.738281 627.148438 400.484375 625.714844 401.011719 C 623.730469 401.738281 622.34375 403.734375 622.472656 405.753906 C 622.648438 408.402344 625.226562 409.992188 627.554688 409.285156 C 628.351562 409.039062 628.761719 408.648438 629.664062 408.71875 C 630.351562 408.773438 631.613281 408.769531 630.867188 407.78125 C 630.136719 406.8125 630.417969 406.734375 630.589844 405.605469 C 630.828125 404.023438 630.527344 402.734375 631.292969 401.015625 C 632.210938 398.949219 635.527344 396.152344 637.625 395.050781 C 637.9375 394.886719 638.394531 394.730469 638.632812 394.566406 C 639.484375 393.984375 646.222656 380.757812 646.886719 379.410156 C 647.234375 378.691406 651.429688 370.105469 651.550781 369.464844 Z M 635 417.398438 C 635.570312 417.136719 637.085938 414.898438 637.519531 414.199219 C 638.023438 413.386719 638.398438 412.601562 638.558594 411.71875 C 639.070312 408.902344 636.886719 407.082031 636.601562 405.367188 C 636.339844 403.78125 636.5625 402.613281 637.101562 400.726562 C 637.332031 399.921875 637.65625 399.082031 638.019531 398.289062 C 638.28125 397.714844 639.238281 396.125 639.203125 395.726562 C 638.929688 395.578125 638.699219 395.726562 638.460938 395.792969 C 637.683594 396.011719 636.96875 396.488281 636.332031 397.023438 C 635.683594 397.566406 635.855469 397.78125 635.84375 398.515625 C 635.820312 399.867188 635.742188 402.085938 635.609375 403.367188 C 635.460938 404.785156 634.769531 405.644531 633.636719 406.410156 C 631.203125 408.054688 630.636719 410.414062 631.574219 412.414062 C 633.019531 415.496094 636.597656 413.546875 634.878906 416.640625 C 634.675781 417 634.558594 417.207031 635 417.398438 Z M 635 417.398438 " fill-opacity="1" fill-rule="evenodd"/></g></g></g></svg>